<svg xmlns="http://www.w3.org/2000/svg" xmlns:xlink="http://www.w3.org/1999/xlink" width="386.854" height="386.854" viewBox="0 0 386.854 386.854">
  <defs>
    <clipPath id="clip-path">
      <rect width="386.854" height="386.854" fill="none"/>
    </clipPath>
  </defs>
  <g id="Componente_15_1" data-name="Componente 15 – 1" clip-path="url(#clip-path)">
    <path id="Trazado_466" data-name="Trazado 466" d="M193.427,0A193.421,193.421,0,0,1,386.854,193.427c0,106.827-86.6,193.427-193.427,193.427S0,300.254,0,193.427,86.6,0,193.427,0Z" fill="#68b0c7"/>
    <path id="Trazado_98" data-name="Trazado 98" d="M237.472,250.372v27.617a6.791,6.791,0,0,1-13.582,0V257.163H155.527v20.826a6.791,6.791,0,1,1-13.582,0V257.163H73.582v20.826a6.791,6.791,0,1,1-13.582,0V250.372a6.724,6.724,0,0,1,6.791-6.791h75.154V223.208a6.886,6.886,0,0,1,.409-2.31h12.765a6.886,6.886,0,0,1,.409,2.31v20.373h75.154A6.724,6.724,0,0,1,237.472,250.372Zm0,0" transform="translate(44.764 -43.738)" fill="#465a61"/>
    <path id="Trazado_99" data-name="Trazado 99" d="M254.582,157.791v22.681H241V157.791a6.791,6.791,0,0,1,13.582,0Zm0,0" transform="translate(-54.291 -5.485)" fill="#465a61"/>
    <path id="Trazado_101" data-name="Trazado 101" d="M248.91,217.791a6.725,6.725,0,0,1-6.791,6.791H187.791a6.791,6.791,0,0,1,0-13.582h54.328A6.724,6.724,0,0,1,248.91,217.791Zm0,0" transform="translate(-21.455 -38.321)" fill="#596c76"/>
    <path id="Trazado_102" data-name="Trazado 102" d="M423.119,413.492H368.791A6.788,6.788,0,0,1,362,406.7v-67.91A6.788,6.788,0,0,1,368.791,332h54.328a6.788,6.788,0,0,1,6.791,6.791V406.7A6.788,6.788,0,0,1,423.119,413.492Zm0,0" transform="translate(-120.51 -104.54)" fill="#596c76"/>
    <path id="Trazado_103" data-name="Trazado 103" d="M242.119,332H187.791A6.724,6.724,0,0,0,181,338.791V406.7a6.725,6.725,0,0,0,6.791,6.791h54.328a6.725,6.725,0,0,0,6.791-6.791v-67.91A6.724,6.724,0,0,0,242.119,332Zm0,0" transform="translate(-21.455 -104.54)" fill="#697c86"/>
    <path id="Trazado_104" data-name="Trazado 104" d="M61.119,413.492H6.791A6.788,6.788,0,0,1,0,406.7v-67.91A6.788,6.788,0,0,1,6.791,332H61.119a6.788,6.788,0,0,1,6.791,6.791V406.7A6.788,6.788,0,0,1,61.119,413.492Zm0,0" transform="translate(77.6 -104.54)" fill="#697c86"/>
    <path id="Trazado_106" data-name="Trazado 106" d="M289.955,338.791V406.7a6.725,6.725,0,0,1-6.791,6.791H256V332h27.164A6.724,6.724,0,0,1,289.955,338.791Zm0,0" transform="translate(-62.5 -104.54)" fill="#596c76"/>
    <path id="Trazado_107" data-name="Trazado 107" d="M236.447,0H127.791A6.724,6.724,0,0,0,121,6.791V75.154a6.725,6.725,0,0,0,6.791,6.791H236.447a6.725,6.725,0,0,0,6.791-6.791V6.791A6.724,6.724,0,0,0,236.447,0Zm0,0" transform="translate(11.381 77.153)" fill="#596c76"/>
    <path id="Trazado_109" data-name="Trazado 109" d="M151,30h95.074V84.781H151Zm0,0" transform="translate(-5.037 60.735)" fill="#c6e2e7"/>
    <path id="Trazado_110" data-name="Trazado 110" d="M256,30h47.537V84.781H256Zm0,0" transform="translate(-62.5 60.735)" fill="#a8d3d8"/>
    <path id="Trazado_111" data-name="Trazado 111" d="M435.582,428.791A6.791,6.791,0,1,1,428.791,422,6.791,6.791,0,0,1,435.582,428.791Zm0,0" transform="translate(-153.346 -153.794)" fill="#a8d3d8"/>
    <path id="Trazado_112" data-name="Trazado 112" d="M254.582,428.791A6.791,6.791,0,1,1,247.791,422,6.725,6.725,0,0,1,254.582,428.791Zm0,0" transform="translate(-54.291 -153.794)" fill="#c6e2e7"/>
    <path id="Trazado_113" data-name="Trazado 113" d="M73.582,428.791A6.791,6.791,0,1,1,66.791,422,6.79,6.79,0,0,1,73.582,428.791Zm0,0" transform="translate(44.764 -153.794)" fill="#c6e2e7"/>
    <path id="Trazado_114" data-name="Trazado 114" d="M262.791,428.791A6.725,6.725,0,0,1,256,435.582V422A6.724,6.724,0,0,1,262.791,428.791Zm0,0" transform="translate(-62.5 -153.794)" fill="#a8d3d8"/>
  </g>
</svg>
