<svg xmlns="http://www.w3.org/2000/svg" xmlns:xlink="http://www.w3.org/1999/xlink" width="386.854" height="386.854" viewBox="0 0 386.854 386.854">
  <defs>
    <clipPath id="clip-path">
      <rect width="386.854" height="386.854" fill="none"/>
    </clipPath>
  </defs>
  <g id="Componente_7_1" data-name="Componente 7 – 1" clip-path="url(#clip-path)">
    <ellipse id="Elipse_21" data-name="Elipse 21" cx="193.427" cy="193.427" rx="193.427" ry="193.427" fill="#5fdfaf"/>
    <g id="marketing" transform="translate(63.258 72.747)">
      <path id="XMLID_117_" d="M17.707,65.219H9.787A9.788,9.788,0,0,1,0,55.431V30.739a9.788,9.788,0,0,1,9.787-9.787h7.919Z" transform="translate(0 61.857)" fill="#2d3039"/>
      <path id="XMLID_116_" d="M74.882,96.783,15.547,93.175a12.373,12.373,0,0,1-11.5-12.342V31.543a10.752,10.752,0,0,1,9.987-10.726L74.878,17.1v79.68Z" transform="translate(13.881 48.668)" fill="#e74c3d"/>
      <path id="XMLID_115_" d="M117.2,202.878,30.29,159.421a18.522,18.522,0,0,1-10.239-16.56V68a18.518,18.518,0,0,1,9.774-16.321l86.918-46.56A18.514,18.514,0,0,1,144,21.438V186.313a18.518,18.518,0,0,1-26.8,16.565" transform="translate(68.708)" fill="#ecf0f1"/>
      <path id="XMLID_114_" d="M52.427,20.952H48V65.219h4.427A17.759,17.759,0,0,0,70.133,47.512V38.659A17.759,17.759,0,0,0,52.427,20.952" transform="translate(164.48 61.857)" fill="#e74c3d"/>
      <path id="XMLID_113_" d="M59.422,80.924a4.423,4.423,0,0,1-3.59-7.007c2.505-3.5,8.309-12.824,8.026-23.864a43.115,43.115,0,0,0-8.043-24.125,4.427,4.427,0,0,1,7.238-5.1,51.854,51.854,0,0,1,9.663,29c.354,13.714-6.653,25.024-9.686,29.251a4.442,4.442,0,0,1-3.608,1.846" transform="translate(188.467 55.005)" fill="#d1d4d2"/>
      <path id="XMLID_112_" d="M8.052,34.376V50.21h13.28a4.427,4.427,0,0,1,0,8.853H8.052v8.853h13.28a4.427,4.427,0,0,1,0,8.853H8.052v8.853h13.28a4.427,4.427,0,0,1,0,8.853H8.052v8.853h13.28a4.427,4.427,0,1,1,0,8.853H8.052v2.877a15.493,15.493,0,1,0,30.987,0V36.306Z" transform="translate(27.592 107.857)" fill="#c03b2b"/>
      <path id="XMLID_111_" d="M25.759,54.379a4.423,4.423,0,0,0-4.427-4.427H8.052v8.853h13.28a4.425,4.425,0,0,0,4.427-4.427" transform="translate(27.592 161.23)" fill="#e74c3d"/>
      <path id="XMLID_110_" d="M25.759,50.379a4.423,4.423,0,0,0-4.427-4.427H8.052v8.853h13.28a4.425,4.425,0,0,0,4.427-4.427" transform="translate(27.592 147.524)" fill="#e74c3d"/>
      <path id="XMLID_109_" d="M25.759,46.379a4.423,4.423,0,0,0-4.427-4.427H8.052v8.853h13.28a4.425,4.425,0,0,0,4.427-4.427" transform="translate(27.592 133.817)" fill="#e74c3d"/>
      <path id="XMLID_108_" d="M25.759,42.379a4.423,4.423,0,0,0-4.427-4.427H8.052v8.853h13.28a4.425,4.425,0,0,0,4.427-4.427" transform="translate(27.592 120.11)" fill="#e74c3d"/>
      <path id="XMLID_107_" d="M48.154,5.121,40,9.49V198.571l8.619,4.307a18.513,18.513,0,0,0,26.795-16.56V21.442A18.516,18.516,0,0,0,48.154,5.121" transform="translate(137.067 0)" fill="#556180"/>
      <path id="XMLID_106_" d="M57.953,16.418a4.424,4.424,0,0,0-5.932-2.005l-19.7,9.743A17.625,17.625,0,0,0,23,39.72v9.646a4.427,4.427,0,1,0,8.853,0V39.72a8.732,8.732,0,0,1,4.52-7.694L55.952,22.35a4.426,4.426,0,0,0,2-5.932" transform="translate(78.813 37.87)" fill="#fff"/>
      <path id="XMLID_105_" d="M27.427,23.952A4.423,4.423,0,0,0,23,28.379v8.853a4.427,4.427,0,0,0,8.853,0V28.379a4.425,4.425,0,0,0-4.427-4.427" transform="translate(78.813 72.137)" fill="#fff"/>
    </g>
  </g>
</svg>
